<svg xmlns="http://www.w3.org/2000/svg" width="720" height="41.8" viewBox="0 0 720 41.8" role="img" aria-labelledby="title">
<title id="title">A wave moving across contribution graph cells</title>
<style>
.w0 { animation: w0 4s ease-in-out infinite; }
@keyframes w0 { 0%, 100% { fill: #2da44e; } 14%, 86% { fill: #eff2f5; } }
.w1 { animation: w1 4s ease-in-out infinite; }
@keyframes w1 { 0%, 100% { fill: #4ac26b; } 25%, 75% { fill: #eff2f5; } }
.w2 { animation: w2 4s ease-in-out infinite; }
@keyframes w2 { 0%, 100% { fill: #aceebb; } 36%, 64% { fill: #eff2f5; } }
@media (prefers-reduced-motion: reduce) { * { animation: none !important; } }
</style>
<g transform="translate(0 0)">
<rect class="w0" x="1.1" y="2" width="10.6" height="10.6" rx="2" fill="#2da44e" style="animation-delay:0s"/>
<rect class="w0" x="14.7" y="2" width="10.6" height="10.6" rx="2" fill="#2da44e" style="animation-delay:-3.8s"/>
<rect class="w0" x="28.3" y="2" width="10.6" height="10.6" rx="2" fill="#2da44e" style="animation-delay:-3.6s"/>
<rect class="w0" x="41.9" y="2" width="10.6" height="10.6" rx="2" fill="#eff2f5" style="animation-delay:-3.4s"/>
<rect class="w0" x="55.5" y="2" width="10.6" height="10.6" rx="2" fill="#eff2f5" style="animation-delay:-3.2s"/>
<rect class="w0" x="69.1" y="2" width="10.6" height="10.6" rx="2" fill="#eff2f5" style="animation-delay:-3s"/>
<rect class="w0" x="82.7" y="2" width="10.6" height="10.6" rx="2" fill="#eff2f5" style="animation-delay:-2.8s"/>
<rect class="w0" x="96.3" y="2" width="10.6" height="10.6" rx="2" fill="#eff2f5" style="animation-delay:-2.6s"/>
<rect class="w0" x="109.9" y="2" width="10.6" height="10.6" rx="2" fill="#eff2f5" style="animation-delay:-2.4s"/>
<rect class="w0" x="123.5" y="2" width="10.6" height="10.6" rx="2" fill="#eff2f5" style="animation-delay:-2.2s"/>
<rect class="w0" x="137.1" y="2" width="10.6" height="10.6" rx="2" fill="#eff2f5" style="animation-delay:-2s"/>
<rect class="w0" x="150.7" y="2" width="10.6" height="10.6" rx="2" fill="#eff2f5" style="animation-delay:-1.8s"/>
<rect class="w0" x="164.3" y="2" width="10.6" height="10.6" rx="2" fill="#eff2f5" style="animation-delay:-1.6s"/>
<rect class="w0" x="177.9" y="2" width="10.6" height="10.6" rx="2" fill="#eff2f5" style="animation-delay:-1.4s"/>
<rect class="w0" x="191.5" y="2" width="10.6" height="10.6" rx="2" fill="#eff2f5" style="animation-delay:-1.2s"/>
<rect class="w0" x="205.1" y="2" width="10.6" height="10.6" rx="2" fill="#eff2f5" style="animation-delay:-1s"/>
<rect class="w0" x="218.7" y="2" width="10.6" height="10.6" rx="2" fill="#eff2f5" style="animation-delay:-0.8s"/>
<rect class="w0" x="232.3" y="2" width="10.6" height="10.6" rx="2" fill="#eff2f5" style="animation-delay:-0.6s"/>
<rect class="w0" x="245.9" y="2" width="10.6" height="10.6" rx="2" fill="#2da44e" style="animation-delay:-0.4s"/>
<rect class="w0" x="259.5" y="2" width="10.6" height="10.6" rx="2" fill="#2da44e" style="animation-delay:-0.2s"/>
<rect class="w0" x="273.1" y="2" width="10.6" height="10.6" rx="2" fill="#2da44e" style="animation-delay:0s"/>
<rect class="w0" x="286.7" y="2" width="10.6" height="10.6" rx="2" fill="#2da44e" style="animation-delay:-3.8s"/>
<rect class="w0" x="300.3" y="2" width="10.6" height="10.6" rx="2" fill="#2da44e" style="animation-delay:-3.6s"/>
<rect class="w0" x="313.9" y="2" width="10.6" height="10.6" rx="2" fill="#eff2f5" style="animation-delay:-3.4s"/>
<rect class="w0" x="327.5" y="2" width="10.6" height="10.6" rx="2" fill="#eff2f5" style="animation-delay:-3.2s"/>
<rect class="w0" x="341.1" y="2" width="10.6" height="10.6" rx="2" fill="#eff2f5" style="animation-delay:-3s"/>
<rect class="w0" x="354.7" y="2" width="10.6" height="10.6" rx="2" fill="#eff2f5" style="animation-delay:-2.8s"/>
<rect class="w0" x="368.3" y="2" width="10.6" height="10.6" rx="2" fill="#eff2f5" style="animation-delay:-2.6s"/>
<rect class="w0" x="381.9" y="2" width="10.6" height="10.6" rx="2" fill="#eff2f5" style="animation-delay:-2.4s"/>
<rect class="w0" x="395.5" y="2" width="10.6" height="10.6" rx="2" fill="#eff2f5" style="animation-delay:-2.2s"/>
<rect class="w0" x="409.1" y="2" width="10.6" height="10.6" rx="2" fill="#eff2f5" style="animation-delay:-2s"/>
<rect class="w0" x="422.7" y="2" width="10.6" height="10.6" rx="2" fill="#eff2f5" style="animation-delay:-1.8s"/>
<rect class="w0" x="436.3" y="2" width="10.6" height="10.6" rx="2" fill="#eff2f5" style="animation-delay:-1.6s"/>
<rect class="w0" x="449.9" y="2" width="10.6" height="10.6" rx="2" fill="#eff2f5" style="animation-delay:-1.4s"/>
<rect class="w0" x="463.5" y="2" width="10.6" height="10.6" rx="2" fill="#eff2f5" style="animation-delay:-1.2s"/>
<rect class="w0" x="477.1" y="2" width="10.6" height="10.6" rx="2" fill="#eff2f5" style="animation-delay:-1s"/>
<rect class="w0" x="490.7" y="2" width="10.6" height="10.6" rx="2" fill="#eff2f5" style="animation-delay:-0.8s"/>
<rect class="w0" x="504.3" y="2" width="10.6" height="10.6" rx="2" fill="#eff2f5" style="animation-delay:-0.6s"/>
<rect class="w0" x="517.9" y="2" width="10.6" height="10.6" rx="2" fill="#2da44e" style="animation-delay:-0.4s"/>
<rect class="w0" x="531.5" y="2" width="10.6" height="10.6" rx="2" fill="#2da44e" style="animation-delay:-0.2s"/>
<rect class="w0" x="545.1" y="2" width="10.6" height="10.6" rx="2" fill="#2da44e" style="animation-delay:0s"/>
<rect class="w0" x="558.7" y="2" width="10.6" height="10.6" rx="2" fill="#2da44e" style="animation-delay:-3.8s"/>
<rect class="w0" x="572.3" y="2" width="10.6" height="10.6" rx="2" fill="#2da44e" style="animation-delay:-3.6s"/>
<rect class="w0" x="585.9" y="2" width="10.6" height="10.6" rx="2" fill="#eff2f5" style="animation-delay:-3.4s"/>
<rect class="w0" x="599.5" y="2" width="10.6" height="10.6" rx="2" fill="#eff2f5" style="animation-delay:-3.2s"/>
<rect class="w0" x="613.1" y="2" width="10.6" height="10.6" rx="2" fill="#eff2f5" style="animation-delay:-3s"/>
<rect class="w0" x="626.7" y="2" width="10.6" height="10.6" rx="2" fill="#eff2f5" style="animation-delay:-2.8s"/>
<rect class="w0" x="640.3" y="2" width="10.6" height="10.6" rx="2" fill="#eff2f5" style="animation-delay:-2.6s"/>
<rect class="w0" x="653.9" y="2" width="10.6" height="10.6" rx="2" fill="#eff2f5" style="animation-delay:-2.4s"/>
<rect class="w0" x="667.5" y="2" width="10.6" height="10.6" rx="2" fill="#eff2f5" style="animation-delay:-2.2s"/>
<rect class="w0" x="681.1" y="2" width="10.6" height="10.6" rx="2" fill="#eff2f5" style="animation-delay:-2s"/>
<rect class="w0" x="694.7" y="2" width="10.6" height="10.6" rx="2" fill="#eff2f5" style="animation-delay:-1.8s"/>
<rect class="w0" x="708.3" y="2" width="10.6" height="10.6" rx="2" fill="#eff2f5" style="animation-delay:-1.6s"/>
<rect class="w1" x="1.1" y="15.6" width="10.6" height="10.6" rx="2" fill="#4ac26b" style="animation-delay:0s"/>
<rect class="w1" x="14.7" y="15.6" width="10.6" height="10.6" rx="2" fill="#4ac26b" style="animation-delay:-3.8s"/>
<rect class="w1" x="28.3" y="15.6" width="10.6" height="10.6" rx="2" fill="#4ac26b" style="animation-delay:-3.6s"/>
<rect class="w1" x="41.9" y="15.6" width="10.6" height="10.6" rx="2" fill="#4ac26b" style="animation-delay:-3.4s"/>
<rect class="w1" x="55.5" y="15.6" width="10.6" height="10.6" rx="2" fill="#4ac26b" style="animation-delay:-3.2s"/>
<rect class="w1" x="69.1" y="15.6" width="10.6" height="10.6" rx="2" fill="#eff2f5" style="animation-delay:-3s"/>
<rect class="w1" x="82.7" y="15.6" width="10.6" height="10.6" rx="2" fill="#eff2f5" style="animation-delay:-2.8s"/>
<rect class="w1" x="96.3" y="15.6" width="10.6" height="10.6" rx="2" fill="#eff2f5" style="animation-delay:-2.6s"/>
<rect class="w1" x="109.9" y="15.6" width="10.6" height="10.6" rx="2" fill="#eff2f5" style="animation-delay:-2.4s"/>
<rect class="w1" x="123.5" y="15.6" width="10.6" height="10.6" rx="2" fill="#eff2f5" style="animation-delay:-2.2s"/>
<rect class="w1" x="137.1" y="15.6" width="10.6" height="10.6" rx="2" fill="#eff2f5" style="animation-delay:-2s"/>
<rect class="w1" x="150.7" y="15.6" width="10.6" height="10.6" rx="2" fill="#eff2f5" style="animation-delay:-1.8s"/>
<rect class="w1" x="164.3" y="15.6" width="10.6" height="10.6" rx="2" fill="#eff2f5" style="animation-delay:-1.6s"/>
<rect class="w1" x="177.9" y="15.6" width="10.6" height="10.6" rx="2" fill="#eff2f5" style="animation-delay:-1.4s"/>
<rect class="w1" x="191.5" y="15.6" width="10.6" height="10.6" rx="2" fill="#eff2f5" style="animation-delay:-1.2s"/>
<rect class="w1" x="205.1" y="15.6" width="10.6" height="10.6" rx="2" fill="#eff2f5" style="animation-delay:-1s"/>
<rect class="w1" x="218.7" y="15.6" width="10.6" height="10.6" rx="2" fill="#4ac26b" style="animation-delay:-0.8s"/>
<rect class="w1" x="232.3" y="15.6" width="10.6" height="10.6" rx="2" fill="#4ac26b" style="animation-delay:-0.6s"/>
<rect class="w1" x="245.9" y="15.6" width="10.6" height="10.6" rx="2" fill="#4ac26b" style="animation-delay:-0.4s"/>
<rect class="w1" x="259.5" y="15.6" width="10.6" height="10.6" rx="2" fill="#4ac26b" style="animation-delay:-0.2s"/>
<rect class="w1" x="273.1" y="15.6" width="10.6" height="10.6" rx="2" fill="#4ac26b" style="animation-delay:0s"/>
<rect class="w1" x="286.7" y="15.6" width="10.6" height="10.6" rx="2" fill="#4ac26b" style="animation-delay:-3.8s"/>
<rect class="w1" x="300.3" y="15.6" width="10.6" height="10.6" rx="2" fill="#4ac26b" style="animation-delay:-3.6s"/>
<rect class="w1" x="313.9" y="15.6" width="10.6" height="10.6" rx="2" fill="#4ac26b" style="animation-delay:-3.4s"/>
<rect class="w1" x="327.5" y="15.6" width="10.6" height="10.6" rx="2" fill="#4ac26b" style="animation-delay:-3.2s"/>
<rect class="w1" x="341.1" y="15.6" width="10.6" height="10.6" rx="2" fill="#eff2f5" style="animation-delay:-3s"/>
<rect class="w1" x="354.7" y="15.6" width="10.6" height="10.6" rx="2" fill="#eff2f5" style="animation-delay:-2.8s"/>
<rect class="w1" x="368.3" y="15.6" width="10.6" height="10.6" rx="2" fill="#eff2f5" style="animation-delay:-2.6s"/>
<rect class="w1" x="381.9" y="15.6" width="10.6" height="10.6" rx="2" fill="#eff2f5" style="animation-delay:-2.4s"/>
<rect class="w1" x="395.5" y="15.6" width="10.6" height="10.6" rx="2" fill="#eff2f5" style="animation-delay:-2.2s"/>
<rect class="w1" x="409.1" y="15.6" width="10.6" height="10.6" rx="2" fill="#eff2f5" style="animation-delay:-2s"/>
<rect class="w1" x="422.7" y="15.6" width="10.6" height="10.6" rx="2" fill="#eff2f5" style="animation-delay:-1.8s"/>
<rect class="w1" x="436.3" y="15.6" width="10.6" height="10.6" rx="2" fill="#eff2f5" style="animation-delay:-1.6s"/>
<rect class="w1" x="449.9" y="15.6" width="10.6" height="10.6" rx="2" fill="#eff2f5" style="animation-delay:-1.4s"/>
<rect class="w1" x="463.5" y="15.6" width="10.6" height="10.6" rx="2" fill="#eff2f5" style="animation-delay:-1.2s"/>
<rect class="w1" x="477.1" y="15.6" width="10.6" height="10.6" rx="2" fill="#eff2f5" style="animation-delay:-1s"/>
<rect class="w1" x="490.7" y="15.6" width="10.6" height="10.6" rx="2" fill="#4ac26b" style="animation-delay:-0.8s"/>
<rect class="w1" x="504.3" y="15.6" width="10.6" height="10.6" rx="2" fill="#4ac26b" style="animation-delay:-0.6s"/>
<rect class="w1" x="517.9" y="15.6" width="10.6" height="10.6" rx="2" fill="#4ac26b" style="animation-delay:-0.4s"/>
<rect class="w1" x="531.5" y="15.6" width="10.6" height="10.6" rx="2" fill="#4ac26b" style="animation-delay:-0.2s"/>
<rect class="w1" x="545.1" y="15.6" width="10.6" height="10.6" rx="2" fill="#4ac26b" style="animation-delay:0s"/>
<rect class="w1" x="558.7" y="15.6" width="10.6" height="10.6" rx="2" fill="#4ac26b" style="animation-delay:-3.8s"/>
<rect class="w1" x="572.3" y="15.6" width="10.6" height="10.6" rx="2" fill="#4ac26b" style="animation-delay:-3.6s"/>
<rect class="w1" x="585.9" y="15.6" width="10.6" height="10.6" rx="2" fill="#4ac26b" style="animation-delay:-3.4s"/>
<rect class="w1" x="599.5" y="15.6" width="10.6" height="10.6" rx="2" fill="#4ac26b" style="animation-delay:-3.2s"/>
<rect class="w1" x="613.1" y="15.6" width="10.6" height="10.6" rx="2" fill="#eff2f5" style="animation-delay:-3s"/>
<rect class="w1" x="626.7" y="15.6" width="10.6" height="10.6" rx="2" fill="#eff2f5" style="animation-delay:-2.8s"/>
<rect class="w1" x="640.3" y="15.6" width="10.6" height="10.6" rx="2" fill="#eff2f5" style="animation-delay:-2.6s"/>
<rect class="w1" x="653.9" y="15.6" width="10.6" height="10.6" rx="2" fill="#eff2f5" style="animation-delay:-2.4s"/>
<rect class="w1" x="667.5" y="15.6" width="10.6" height="10.6" rx="2" fill="#eff2f5" style="animation-delay:-2.2s"/>
<rect class="w1" x="681.1" y="15.6" width="10.6" height="10.6" rx="2" fill="#eff2f5" style="animation-delay:-2s"/>
<rect class="w1" x="694.7" y="15.6" width="10.6" height="10.6" rx="2" fill="#eff2f5" style="animation-delay:-1.8s"/>
<rect class="w1" x="708.3" y="15.6" width="10.6" height="10.6" rx="2" fill="#eff2f5" style="animation-delay:-1.6s"/>
<rect class="w2" x="1.1" y="29.2" width="10.6" height="10.6" rx="2" fill="#aceebb" style="animation-delay:0s"/>
<rect class="w2" x="14.7" y="29.2" width="10.6" height="10.6" rx="2" fill="#aceebb" style="animation-delay:-3.8s"/>
<rect class="w2" x="28.3" y="29.2" width="10.6" height="10.6" rx="2" fill="#aceebb" style="animation-delay:-3.6s"/>
<rect class="w2" x="41.9" y="29.2" width="10.6" height="10.6" rx="2" fill="#aceebb" style="animation-delay:-3.4s"/>
<rect class="w2" x="55.5" y="29.2" width="10.6" height="10.6" rx="2" fill="#aceebb" style="animation-delay:-3.2s"/>
<rect class="w2" x="69.1" y="29.2" width="10.6" height="10.6" rx="2" fill="#aceebb" style="animation-delay:-3s"/>
<rect class="w2" x="82.7" y="29.2" width="10.6" height="10.6" rx="2" fill="#aceebb" style="animation-delay:-2.8s"/>
<rect class="w2" x="96.3" y="29.2" width="10.6" height="10.6" rx="2" fill="#aceebb" style="animation-delay:-2.6s"/>
<rect class="w2" x="109.9" y="29.2" width="10.6" height="10.6" rx="2" fill="#eff2f5" style="animation-delay:-2.4s"/>
<rect class="w2" x="123.5" y="29.2" width="10.6" height="10.6" rx="2" fill="#eff2f5" style="animation-delay:-2.2s"/>
<rect class="w2" x="137.1" y="29.2" width="10.6" height="10.6" rx="2" fill="#eff2f5" style="animation-delay:-2s"/>
<rect class="w2" x="150.7" y="29.2" width="10.6" height="10.6" rx="2" fill="#eff2f5" style="animation-delay:-1.8s"/>
<rect class="w2" x="164.3" y="29.2" width="10.6" height="10.6" rx="2" fill="#eff2f5" style="animation-delay:-1.6s"/>
<rect class="w2" x="177.9" y="29.2" width="10.6" height="10.6" rx="2" fill="#aceebb" style="animation-delay:-1.4s"/>
<rect class="w2" x="191.5" y="29.2" width="10.6" height="10.6" rx="2" fill="#aceebb" style="animation-delay:-1.2s"/>
<rect class="w2" x="205.1" y="29.2" width="10.6" height="10.6" rx="2" fill="#aceebb" style="animation-delay:-1s"/>
<rect class="w2" x="218.7" y="29.2" width="10.6" height="10.6" rx="2" fill="#aceebb" style="animation-delay:-0.8s"/>
<rect class="w2" x="232.3" y="29.2" width="10.6" height="10.6" rx="2" fill="#aceebb" style="animation-delay:-0.6s"/>
<rect class="w2" x="245.9" y="29.2" width="10.6" height="10.6" rx="2" fill="#aceebb" style="animation-delay:-0.4s"/>
<rect class="w2" x="259.5" y="29.2" width="10.6" height="10.6" rx="2" fill="#aceebb" style="animation-delay:-0.2s"/>
<rect class="w2" x="273.1" y="29.2" width="10.6" height="10.6" rx="2" fill="#aceebb" style="animation-delay:0s"/>
<rect class="w2" x="286.7" y="29.2" width="10.6" height="10.6" rx="2" fill="#aceebb" style="animation-delay:-3.8s"/>
<rect class="w2" x="300.3" y="29.2" width="10.6" height="10.6" rx="2" fill="#aceebb" style="animation-delay:-3.6s"/>
<rect class="w2" x="313.9" y="29.2" width="10.6" height="10.6" rx="2" fill="#aceebb" style="animation-delay:-3.4s"/>
<rect class="w2" x="327.5" y="29.2" width="10.6" height="10.6" rx="2" fill="#aceebb" style="animation-delay:-3.2s"/>
<rect class="w2" x="341.1" y="29.2" width="10.6" height="10.6" rx="2" fill="#aceebb" style="animation-delay:-3s"/>
<rect class="w2" x="354.7" y="29.2" width="10.6" height="10.6" rx="2" fill="#aceebb" style="animation-delay:-2.8s"/>
<rect class="w2" x="368.3" y="29.2" width="10.6" height="10.6" rx="2" fill="#aceebb" style="animation-delay:-2.6s"/>
<rect class="w2" x="381.9" y="29.2" width="10.6" height="10.6" rx="2" fill="#eff2f5" style="animation-delay:-2.4s"/>
<rect class="w2" x="395.5" y="29.2" width="10.6" height="10.6" rx="2" fill="#eff2f5" style="animation-delay:-2.2s"/>
<rect class="w2" x="409.1" y="29.2" width="10.6" height="10.6" rx="2" fill="#eff2f5" style="animation-delay:-2s"/>
<rect class="w2" x="422.7" y="29.2" width="10.6" height="10.6" rx="2" fill="#eff2f5" style="animation-delay:-1.8s"/>
<rect class="w2" x="436.3" y="29.2" width="10.6" height="10.6" rx="2" fill="#eff2f5" style="animation-delay:-1.6s"/>
<rect class="w2" x="449.9" y="29.2" width="10.6" height="10.6" rx="2" fill="#aceebb" style="animation-delay:-1.4s"/>
<rect class="w2" x="463.5" y="29.2" width="10.6" height="10.6" rx="2" fill="#aceebb" style="animation-delay:-1.2s"/>
<rect class="w2" x="477.1" y="29.2" width="10.6" height="10.6" rx="2" fill="#aceebb" style="animation-delay:-1s"/>
<rect class="w2" x="490.7" y="29.2" width="10.6" height="10.6" rx="2" fill="#aceebb" style="animation-delay:-0.8s"/>
<rect class="w2" x="504.3" y="29.2" width="10.6" height="10.6" rx="2" fill="#aceebb" style="animation-delay:-0.6s"/>
<rect class="w2" x="517.9" y="29.2" width="10.6" height="10.6" rx="2" fill="#aceebb" style="animation-delay:-0.4s"/>
<rect class="w2" x="531.5" y="29.2" width="10.6" height="10.6" rx="2" fill="#aceebb" style="animation-delay:-0.2s"/>
<rect class="w2" x="545.1" y="29.2" width="10.6" height="10.6" rx="2" fill="#aceebb" style="animation-delay:0s"/>
<rect class="w2" x="558.7" y="29.2" width="10.6" height="10.6" rx="2" fill="#aceebb" style="animation-delay:-3.8s"/>
<rect class="w2" x="572.3" y="29.2" width="10.6" height="10.6" rx="2" fill="#aceebb" style="animation-delay:-3.6s"/>
<rect class="w2" x="585.9" y="29.2" width="10.6" height="10.6" rx="2" fill="#aceebb" style="animation-delay:-3.4s"/>
<rect class="w2" x="599.5" y="29.2" width="10.6" height="10.6" rx="2" fill="#aceebb" style="animation-delay:-3.2s"/>
<rect class="w2" x="613.1" y="29.2" width="10.6" height="10.6" rx="2" fill="#aceebb" style="animation-delay:-3s"/>
<rect class="w2" x="626.7" y="29.2" width="10.6" height="10.6" rx="2" fill="#aceebb" style="animation-delay:-2.8s"/>
<rect class="w2" x="640.3" y="29.2" width="10.6" height="10.6" rx="2" fill="#aceebb" style="animation-delay:-2.6s"/>
<rect class="w2" x="653.9" y="29.2" width="10.6" height="10.6" rx="2" fill="#eff2f5" style="animation-delay:-2.4s"/>
<rect class="w2" x="667.5" y="29.2" width="10.6" height="10.6" rx="2" fill="#eff2f5" style="animation-delay:-2.2s"/>
<rect class="w2" x="681.1" y="29.2" width="10.6" height="10.6" rx="2" fill="#eff2f5" style="animation-delay:-2s"/>
<rect class="w2" x="694.7" y="29.2" width="10.6" height="10.6" rx="2" fill="#eff2f5" style="animation-delay:-1.8s"/>
<rect class="w2" x="708.3" y="29.2" width="10.6" height="10.6" rx="2" fill="#eff2f5" style="animation-delay:-1.6s"/>
</g>
</svg>
